<svg width="1600" height="85" viewBox="0 0 1600 85" fill="none" xmlns="http://www.w3.org/2000/svg">
<g opacity="0.4">
<g clip-path="url(#clip0_1_32667)">
<path d="M8.05115 21.4257C8.05115 20.4663 8.82893 19.6885 9.78838 19.6885C10.7478 19.6885 11.5256 20.4663 11.5256 21.4257V92.6521H8.05115V21.4257Z" fill="#0176FF" fill-opacity="0.2"/>
<path d="M13.8419 38.798C13.8419 37.8386 14.6197 37.0608 15.5791 37.0608C16.5386 37.0608 17.3164 37.8386 17.3164 38.798V92.6521H13.8419V38.798Z" fill="#FF0000" fill-opacity="0.04"/>
</g>
<g clip-path="url(#clip1_1_32667)">
<path d="M26.1024 41.1144C26.1024 40.155 26.8802 39.3772 27.8396 39.3772C28.7991 39.3772 29.5769 40.155 29.5769 41.1144V92.6522H26.1024V41.1144Z" fill="#0176FF" fill-opacity="0.2"/>
<path d="M31.8932 38.798C31.8932 37.8386 32.671 37.0608 33.6304 37.0608C34.5899 37.0608 35.3676 37.8386 35.3676 38.798V92.6521H31.8932V38.798Z" fill="#FF0000" fill-opacity="0.04"/>
</g>
<g clip-path="url(#clip2_1_32667)">
<path d="M44.1536 56.1703C44.1536 55.2109 44.9314 54.4331 45.8909 54.4331C46.8503 54.4331 47.6281 55.2109 47.6281 56.1703V92.6521H44.1536V56.1703Z" fill="#0176FF" fill-opacity="0.2"/>
<path d="M49.9444 38.798C49.9444 37.8386 50.7222 37.0608 51.6816 37.0608C52.6411 37.0608 53.4189 37.8386 53.4189 38.798V92.6521H49.9444V38.798Z" fill="#FF0000" fill-opacity="0.04"/>
</g>
<g clip-path="url(#clip3_1_32667)">
<path d="M62.2048 43.4306C62.2048 42.4711 62.9826 41.6934 63.9421 41.6934C64.9015 41.6934 65.6793 42.4711 65.6793 43.4306V92.6521H62.2048V43.4306Z" fill="#0176FF" fill-opacity="0.2"/>
<path d="M67.9956 38.798C67.9956 37.8386 68.7734 37.0608 69.7328 37.0608C70.6923 37.0608 71.4701 37.8386 71.4701 38.798V92.6521H67.9956V38.798Z" fill="#FF0000" fill-opacity="0.04"/>
</g>
<g clip-path="url(#clip4_1_32667)">
<path d="M80.256 78.1752C80.256 77.2158 81.0338 76.438 81.9932 76.438C82.9527 76.438 83.7304 77.2158 83.7304 78.1752V92.6521H80.256V78.1752Z" fill="#0176FF" fill-opacity="0.2"/>
<path d="M86.0468 38.798C86.0468 37.8386 86.8245 37.0608 87.784 37.0608C88.7434 37.0608 89.5212 37.8386 89.5212 38.798V92.6521H86.0468V38.798Z" fill="#FF0000" fill-opacity="0.04"/>
</g>
<g clip-path="url(#clip5_1_32667)">
<path d="M98.3072 30.6911C98.3072 29.7316 99.085 28.9539 100.044 28.9539C101.004 28.9539 101.782 29.7316 101.782 30.6911V92.6522H98.3072V30.6911Z" fill="#0176FF" fill-opacity="0.2"/>
<path d="M104.098 38.7983C104.098 37.8388 104.876 37.061 105.835 37.061C106.795 37.061 107.572 37.8388 107.572 38.7983V92.6523H104.098V38.7983Z" fill="#FF0000" fill-opacity="0.04"/>
</g>
<g clip-path="url(#clip6_1_32667)">
<path d="M116.358 49.2214C116.358 48.2619 117.136 47.4841 118.096 47.4841C119.055 47.4841 119.833 48.2619 119.833 49.2214V92.6521H116.358V49.2214Z" fill="#0176FF" fill-opacity="0.2"/>
<path d="M122.149 38.798C122.149 37.8386 122.927 37.0608 123.886 37.0608C124.846 37.0608 125.624 37.8386 125.624 38.798V92.6521H122.149V38.798Z" fill="#FF0000" fill-opacity="0.04"/>
</g>
<g clip-path="url(#clip7_1_32667)">
<path d="M134.41 24.9003C134.41 23.9409 135.187 23.1631 136.147 23.1631C137.106 23.1631 137.884 23.9409 137.884 24.9003V92.6522H134.41V24.9003Z" fill="#0176FF" fill-opacity="0.2"/>
<path d="M140.2 38.7983C140.2 37.8388 140.978 37.061 141.938 37.061C142.897 37.061 143.675 37.8388 143.675 38.7983V92.6523H140.2V38.7983Z" fill="#FF0000" fill-opacity="0.04"/>
</g>
<g clip-path="url(#clip8_1_32667)">
<path d="M152.461 70.0683C152.461 69.1088 153.239 68.3311 154.198 68.3311C155.157 68.3311 155.935 69.1088 155.935 70.0683V92.6523H152.461V70.0683Z" fill="#0176FF" fill-opacity="0.2"/>
<path d="M158.252 38.7983C158.252 37.8388 159.029 37.061 159.989 37.061C160.948 37.061 161.726 37.8388 161.726 38.7983V92.6523H158.252V38.7983Z" fill="#FF0000" fill-opacity="0.04"/>
</g>
<g clip-path="url(#clip9_1_32667)">
<path d="M170.512 35.3237C170.512 34.3642 171.29 33.5864 172.249 33.5864C173.209 33.5864 173.986 34.3642 173.986 35.3237V92.6522H170.512V35.3237Z" fill="#0176FF" fill-opacity="0.2"/>
<path d="M176.303 38.798C176.303 37.8386 177.081 37.0608 178.04 37.0608C178.999 37.0608 179.777 37.8386 179.777 38.798V92.6521H176.303V38.798Z" fill="#FF0000" fill-opacity="0.04"/>
</g>
<g clip-path="url(#clip10_1_32667)">
<path d="M188.563 41.1144C188.563 40.155 189.341 39.3772 190.3 39.3772C191.26 39.3772 192.038 40.155 192.038 41.1144V92.6522H188.563V41.1144Z" fill="#0176FF" fill-opacity="0.2"/>
<path d="M194.354 38.798C194.354 37.8386 195.132 37.0608 196.091 37.0608C197.051 37.0608 197.828 37.8386 197.828 38.798V92.6521H194.354V38.798Z" fill="#FF0000" fill-opacity="0.04"/>
</g>
<g clip-path="url(#clip11_1_32667)">
<path d="M206.614 8.6862C206.614 7.72675 207.392 6.94897 208.352 6.94897C209.311 6.94897 210.089 7.72676 210.089 8.6862V92.6522H206.614V8.6862Z" fill="#0176FF" fill-opacity="0.2"/>
<path d="M212.405 38.7983C212.405 37.8388 213.183 37.061 214.142 37.061C215.102 37.061 215.88 37.8388 215.88 38.7983V92.6523H212.405V38.7983Z" fill="#FF0000" fill-opacity="0.04"/>
</g>
<g clip-path="url(#clip12_1_32667)">
<path d="M224.666 56.1703C224.666 55.2109 225.443 54.4331 226.403 54.4331C227.362 54.4331 228.14 55.2109 228.14 56.1703V92.6521H224.666V56.1703Z" fill="#0176FF" fill-opacity="0.2"/>
<path d="M230.456 38.798C230.456 37.8386 231.234 37.0608 232.194 37.0608C233.153 37.0608 233.931 37.8386 233.931 38.798V92.6521H230.456V38.798Z" fill="#FF0000" fill-opacity="0.04"/>
</g>
<g clip-path="url(#clip13_1_32667)">
<path d="M242.717 33.0072C242.717 32.0478 243.495 31.27 244.454 31.27C245.413 31.27 246.191 32.0478 246.191 33.0072V92.6521H242.717V33.0072Z" fill="#0176FF" fill-opacity="0.2"/>
<path d="M248.508 38.798C248.508 37.8386 249.285 37.0608 250.245 37.0608C251.204 37.0608 251.982 37.8386 251.982 38.798V92.6521H248.508V38.798Z" fill="#FF0000" fill-opacity="0.04"/>
</g>
<g clip-path="url(#clip14_1_32667)">
<path d="M260.768 78.1752C260.768 77.2158 261.546 76.438 262.505 76.438C263.465 76.438 264.242 77.2158 264.242 78.1752V92.6521H260.768V78.1752Z" fill="#0176FF" fill-opacity="0.2"/>
<path d="M266.559 38.798C266.559 37.8386 267.336 37.0608 268.296 37.0608C269.255 37.0608 270.033 37.8386 270.033 38.798V92.6521H266.559V38.798Z" fill="#FF0000" fill-opacity="0.04"/>
</g>
<g clip-path="url(#clip15_1_32667)">
<path d="M278.819 53.8542C278.819 52.8947 279.597 52.1169 280.556 52.1169C281.516 52.1169 282.294 52.8947 282.294 53.8542V92.6523H278.819V53.8542Z" fill="#0176FF" fill-opacity="0.2"/>
<path d="M284.61 38.7983C284.61 37.8388 285.388 37.061 286.347 37.061C287.307 37.061 288.084 37.8388 288.084 38.7983V92.6523H284.61V38.7983Z" fill="#FF0000" fill-opacity="0.04"/>
</g>
<g clip-path="url(#clip16_1_32667)">
<path d="M296.87 19.1095C296.87 18.1501 297.648 17.3723 298.608 17.3723C299.567 17.3723 300.345 18.1501 300.345 19.1095V92.6522H296.87V19.1095Z" fill="#0176FF" fill-opacity="0.2"/>
<path d="M302.661 38.798C302.661 37.8386 303.439 37.0608 304.398 37.0608C305.358 37.0608 306.136 37.8386 306.136 38.798V92.6521H302.661V38.798Z" fill="#FF0000" fill-opacity="0.04"/>
</g>
<g clip-path="url(#clip17_1_32667)">
<path d="M314.922 70.0683C314.922 69.1088 315.699 68.3311 316.659 68.3311C317.618 68.3311 318.396 69.1088 318.396 70.0683V92.6523H314.922V70.0683Z" fill="#0176FF" fill-opacity="0.2"/>
<path d="M320.712 38.7983C320.712 37.8388 321.49 37.061 322.45 37.061C323.409 37.061 324.187 37.8388 324.187 38.7983V92.6523H320.712V38.7983Z" fill="#FF0000" fill-opacity="0.04"/>
</g>
<g clip-path="url(#clip18_1_32667)">
<path d="M332.973 43.4306C332.973 42.4711 333.751 41.6934 334.71 41.6934C335.669 41.6934 336.447 42.4711 336.447 43.4306V92.6521H332.973V43.4306Z" fill="#0176FF" fill-opacity="0.2"/>
<path d="M338.764 38.798C338.764 37.8386 339.541 37.0608 340.501 37.0608C341.46 37.0608 342.238 37.8386 342.238 38.798V92.6521H338.764V38.798Z" fill="#FF0000" fill-opacity="0.04"/>
</g>
<g clip-path="url(#clip19_1_32667)">
<path d="M351.024 29.5329C351.024 28.5734 351.802 27.7957 352.761 27.7957C353.721 27.7957 354.499 28.5734 354.499 29.5329V92.6522H351.024V29.5329Z" fill="#0176FF" fill-opacity="0.2"/>
<path d="M356.815 38.798C356.815 37.8386 357.593 37.0608 358.552 37.0608C359.511 37.0608 360.289 37.8386 360.289 38.798V92.6521H356.815V38.798Z" fill="#FF0000" fill-opacity="0.04"/>
</g>
<g clip-path="url(#clip20_1_32667)">
<path d="M369.075 60.8029C369.075 59.8435 369.853 59.0657 370.812 59.0657C371.772 59.0657 372.55 59.8435 372.55 60.8029V92.6521H369.075V60.8029Z" fill="#0176FF" fill-opacity="0.2"/>
<path d="M374.866 38.798C374.866 37.8386 375.644 37.0608 376.603 37.0608C377.563 37.0608 378.34 37.8386 378.34 38.798V92.6521H374.866V38.798Z" fill="#FF0000" fill-opacity="0.04"/>
</g>
<g clip-path="url(#clip21_1_32667)">
<path d="M387.126 35.3237C387.126 34.3642 387.904 33.5864 388.864 33.5864C389.823 33.5864 390.601 34.3642 390.601 35.3237V92.6522H387.126V35.3237Z" fill="#0176FF" fill-opacity="0.2"/>
<path d="M392.917 38.798C392.917 37.8386 393.695 37.0608 394.654 37.0608C395.614 37.0608 396.392 37.8386 396.392 38.798V92.6521H392.917V38.798Z" fill="#FF0000" fill-opacity="0.04"/>
</g>
<g clip-path="url(#clip22_1_32667)">
<path d="M405.178 67.7519C405.178 66.7924 405.955 66.0146 406.915 66.0146C407.874 66.0146 408.652 66.7924 408.652 67.7519V92.6521H405.178V67.7519Z" fill="#0176FF" fill-opacity="0.2"/>
<path d="M410.968 38.798C410.968 37.8386 411.746 37.0608 412.706 37.0608C413.665 37.0608 414.443 37.8386 414.443 38.798V92.6521H410.968V38.798Z" fill="#FF0000" fill-opacity="0.04"/>
</g>
<g clip-path="url(#clip23_1_32667)">
<path d="M423.229 1.73723C423.229 0.777785 424.007 0 424.966 0C425.926 0 426.703 0.777784 426.703 1.73723V92.6522H423.229V1.73723Z" fill="#0176FF" fill-opacity="0.2"/>
<path d="M429.02 38.798C429.02 37.8386 429.797 37.0608 430.757 37.0608C431.716 37.0608 432.494 37.8386 432.494 38.798V92.6521H429.02V38.798Z" fill="#FF0000" fill-opacity="0.04"/>
</g>
<g clip-path="url(#clip24_1_32667)">
<path d="M441.28 53.8542C441.28 52.8947 442.058 52.1169 443.017 52.1169C443.977 52.1169 444.754 52.8947 444.754 53.8542V92.6523H441.28V53.8542Z" fill="#0176FF" fill-opacity="0.2"/>
<path d="M447.071 38.7983C447.071 37.8388 447.849 37.061 448.808 37.061C449.767 37.061 450.545 37.8388 450.545 38.7983V92.6523H447.071V38.7983Z" fill="#FF0000" fill-opacity="0.04"/>
</g>
<g clip-path="url(#clip25_1_32667)">
<path d="M459.331 19.1095C459.331 18.1501 460.109 17.3723 461.069 17.3723C462.028 17.3723 462.806 18.1501 462.806 19.1095V92.6522H459.331V19.1095Z" fill="#0176FF" fill-opacity="0.2"/>
<path d="M465.122 38.798C465.122 37.8386 465.9 37.0608 466.859 37.0608C467.819 37.0608 468.597 37.8386 468.597 38.798V92.6521H465.122V38.798Z" fill="#FF0000" fill-opacity="0.04"/>
</g>
<g clip-path="url(#clip26_1_32667)">
<path d="M477.382 72.3844C477.382 71.425 478.16 70.6472 479.12 70.6472C480.079 70.6472 480.857 71.425 480.857 72.3844V92.6521H477.382V72.3844Z" fill="#0176FF" fill-opacity="0.2"/>
<path d="M483.173 38.798C483.173 37.8386 483.951 37.0608 484.91 37.0608C485.87 37.0608 486.648 37.8386 486.648 38.798V92.6521H483.173V38.798Z" fill="#FF0000" fill-opacity="0.04"/>
</g>
<g clip-path="url(#clip27_1_32667)">
<path d="M495.434 29.5329C495.434 28.5734 496.211 27.7957 497.171 27.7957C498.13 27.7957 498.908 28.5734 498.908 29.5329V92.6522H495.434V29.5329Z" fill="#0176FF" fill-opacity="0.2"/>
<path d="M501.224 38.798C501.224 37.8386 502.002 37.0608 502.962 37.0608C503.921 37.0608 504.699 37.8386 504.699 38.798V92.6521H501.224V38.798Z" fill="#FF0000" fill-opacity="0.04"/>
</g>
<g clip-path="url(#clip28_1_32667)">
<path d="M513.485 51.5378C513.485 50.5783 514.263 49.8005 515.222 49.8005C516.182 49.8005 516.959 50.5783 516.959 51.5378V92.6522H513.485V51.5378Z" fill="#0176FF" fill-opacity="0.2"/>
<path d="M519.276 38.798C519.276 37.8386 520.053 37.0608 521.013 37.0608C521.972 37.0608 522.75 37.8386 522.75 38.798V92.6521H519.276V38.798Z" fill="#FF0000" fill-opacity="0.04"/>
</g>
<g clip-path="url(#clip29_1_32667)">
<path d="M533.75 65.4355C533.75 64.476 534.528 63.6982 535.487 63.6982C536.447 63.6982 537.224 64.476 537.224 65.4355V92.652H533.75V65.4355Z" fill="#0176FF" fill-opacity="0.2"/>
<path d="M539.541 38.798C539.541 37.8386 540.319 37.0608 541.278 37.0608C542.237 37.0608 543.015 37.8386 543.015 38.798V92.6521H539.541V38.798Z" fill="#FF0000" fill-opacity="0.04"/>
</g>
<g clip-path="url(#clip30_1_32667)">
<path d="M551.801 21.4257C551.801 20.4663 552.579 19.6885 553.538 19.6885C554.498 19.6885 555.276 20.4663 555.276 21.4257V92.6521H551.801V21.4257Z" fill="#0176FF" fill-opacity="0.2"/>
<path d="M557.592 38.798C557.592 37.8386 558.37 37.0608 559.329 37.0608C560.289 37.0608 561.066 37.8386 561.066 38.798V92.6521H557.592V38.798Z" fill="#FF0000" fill-opacity="0.04"/>
</g>
<g clip-path="url(#clip31_1_32667)">
<path d="M569.852 41.1144C569.852 40.155 570.63 39.3772 571.59 39.3772C572.549 39.3772 573.327 40.155 573.327 41.1144V92.6522H569.852V41.1144Z" fill="#0176FF" fill-opacity="0.2"/>
<path d="M575.643 38.798C575.643 37.8386 576.421 37.0608 577.38 37.0608C578.34 37.0608 579.118 37.8386 579.118 38.798V92.6521H575.643V38.798Z" fill="#FF0000" fill-opacity="0.04"/>
</g>
<g clip-path="url(#clip32_1_32667)">
<path d="M587.904 56.1703C587.904 55.2109 588.681 54.4331 589.641 54.4331C590.6 54.4331 591.378 55.2109 591.378 56.1703V92.6521H587.904V56.1703Z" fill="#0176FF" fill-opacity="0.2"/>
<path d="M593.694 38.798C593.694 37.8386 594.472 37.0608 595.432 37.0608C596.391 37.0608 597.169 37.8386 597.169 38.798V92.6521H593.694V38.798Z" fill="#FF0000" fill-opacity="0.04"/>
</g>
<g clip-path="url(#clip33_1_32667)">
<path d="M605.955 43.4306C605.955 42.4711 606.733 41.6934 607.692 41.6934C608.651 41.6934 609.429 42.4711 609.429 43.4306V92.6521H605.955V43.4306Z" fill="#0176FF" fill-opacity="0.2"/>
<path d="M611.746 38.798C611.746 37.8386 612.523 37.0608 613.483 37.0608C614.442 37.0608 615.22 37.8386 615.22 38.798V92.6521H611.746V38.798Z" fill="#FF0000" fill-opacity="0.04"/>
</g>
<g clip-path="url(#clip34_1_32667)">
<path d="M624.006 78.1752C624.006 77.2158 624.784 76.438 625.743 76.438C626.703 76.438 627.48 77.2158 627.48 78.1752V92.6521H624.006V78.1752Z" fill="#0176FF" fill-opacity="0.2"/>
<path d="M629.797 38.798C629.797 37.8386 630.575 37.0608 631.534 37.0608C632.493 37.0608 633.271 37.8386 633.271 38.798V92.6521H629.797V38.798Z" fill="#FF0000" fill-opacity="0.04"/>
</g>
<g clip-path="url(#clip35_1_32667)">
<path d="M642.057 30.6911C642.057 29.7316 642.835 28.9539 643.794 28.9539C644.754 28.9539 645.532 29.7316 645.532 30.6911V92.6522H642.057V30.6911Z" fill="#0176FF" fill-opacity="0.2"/>
<path d="M647.848 38.7983C647.848 37.8388 648.626 37.061 649.585 37.061C650.545 37.061 651.322 37.8388 651.322 38.7983V92.6523H647.848V38.7983Z" fill="#FF0000" fill-opacity="0.04"/>
</g>
<g clip-path="url(#clip36_1_32667)">
<path d="M660.108 49.2214C660.108 48.2619 660.886 47.4841 661.846 47.4841C662.805 47.4841 663.583 48.2619 663.583 49.2214V92.6521H660.108V49.2214Z" fill="#0176FF" fill-opacity="0.2"/>
<path d="M665.899 38.798C665.899 37.8386 666.677 37.0608 667.636 37.0608C668.596 37.0608 669.374 37.8386 669.374 38.798V92.6521H665.899V38.798Z" fill="#FF0000" fill-opacity="0.04"/>
</g>
<g clip-path="url(#clip37_1_32667)">
<path d="M678.16 24.9003C678.16 23.9409 678.937 23.1631 679.897 23.1631C680.856 23.1631 681.634 23.9409 681.634 24.9003V92.6522H678.16V24.9003Z" fill="#0176FF" fill-opacity="0.2"/>
<path d="M683.95 38.7983C683.95 37.8388 684.728 37.061 685.688 37.061C686.647 37.061 687.425 37.8388 687.425 38.7983V92.6523H683.95V38.7983Z" fill="#FF0000" fill-opacity="0.04"/>
</g>
<g clip-path="url(#clip38_1_32667)">
<path d="M696.211 70.0683C696.211 69.1088 696.989 68.3311 697.948 68.3311C698.907 68.3311 699.685 69.1088 699.685 70.0683V92.6523H696.211V70.0683Z" fill="#0176FF" fill-opacity="0.2"/>
<path d="M702.002 38.7983C702.002 37.8388 702.779 37.061 703.739 37.061C704.698 37.061 705.476 37.8388 705.476 38.7983V92.6523H702.002V38.7983Z" fill="#FF0000" fill-opacity="0.04"/>
</g>
<g clip-path="url(#clip39_1_32667)">
<path d="M714.262 35.3237C714.262 34.3642 715.04 33.5864 715.999 33.5864C716.959 33.5864 717.736 34.3642 717.736 35.3237V92.6522H714.262V35.3237Z" fill="#0176FF" fill-opacity="0.2"/>
<path d="M720.053 38.798C720.053 37.8386 720.831 37.0608 721.79 37.0608C722.749 37.0608 723.527 37.8386 723.527 38.798V92.6521H720.053V38.798Z" fill="#FF0000" fill-opacity="0.04"/>
</g>
<g clip-path="url(#clip40_1_32667)">
<path d="M732.313 41.1144C732.313 40.155 733.091 39.3772 734.05 39.3772C735.01 39.3772 735.788 40.155 735.788 41.1144V92.6522H732.313V41.1144Z" fill="#0176FF" fill-opacity="0.2"/>
<path d="M738.104 38.798C738.104 37.8386 738.882 37.0608 739.841 37.0608C740.801 37.0608 741.578 37.8386 741.578 38.798V92.6521H738.104V38.798Z" fill="#FF0000" fill-opacity="0.04"/>
</g>
<g clip-path="url(#clip41_1_32667)">
<path d="M750.364 8.6862C750.364 7.72675 751.142 6.94897 752.102 6.94897C753.061 6.94897 753.839 7.72676 753.839 8.6862V92.6522H750.364V8.6862Z" fill="#0176FF" fill-opacity="0.2"/>
<path d="M756.155 38.7983C756.155 37.8388 756.933 37.061 757.892 37.061C758.852 37.061 759.63 37.8388 759.63 38.7983V92.6523H756.155V38.7983Z" fill="#FF0000" fill-opacity="0.04"/>
</g>
<g clip-path="url(#clip42_1_32667)">
<path d="M768.416 56.1703C768.416 55.2109 769.193 54.4331 770.153 54.4331C771.112 54.4331 771.89 55.2109 771.89 56.1703V92.6521H768.416V56.1703Z" fill="#0176FF" fill-opacity="0.2"/>
<path d="M774.206 38.798C774.206 37.8386 774.984 37.0608 775.944 37.0608C776.903 37.0608 777.681 37.8386 777.681 38.798V92.6521H774.206V38.798Z" fill="#FF0000" fill-opacity="0.04"/>
</g>
<g clip-path="url(#clip43_1_32667)">
<path d="M786.467 33.0072C786.467 32.0478 787.245 31.27 788.204 31.27C789.163 31.27 789.941 32.0478 789.941 33.0072V92.6521H786.467V33.0072Z" fill="#0176FF" fill-opacity="0.2"/>
<path d="M792.258 38.798C792.258 37.8386 793.035 37.0608 793.995 37.0608C794.954 37.0608 795.732 37.8386 795.732 38.798V92.6521H792.258V38.798Z" fill="#FF0000" fill-opacity="0.04"/>
</g>
<g clip-path="url(#clip44_1_32667)">
<path d="M804.518 78.1752C804.518 77.2158 805.296 76.438 806.255 76.438C807.215 76.438 807.992 77.2158 807.992 78.1752V92.6521H804.518V78.1752Z" fill="#0176FF" fill-opacity="0.2"/>
<path d="M810.309 38.798C810.309 37.8386 811.087 37.0608 812.046 37.0608C813.005 37.0608 813.783 37.8386 813.783 38.798V92.6521H810.309V38.798Z" fill="#FF0000" fill-opacity="0.04"/>
</g>
<g clip-path="url(#clip45_1_32667)">
<path d="M822.569 53.8542C822.569 52.8947 823.347 52.1169 824.306 52.1169C825.266 52.1169 826.044 52.8947 826.044 53.8542V92.6523H822.569V53.8542Z" fill="#0176FF" fill-opacity="0.2"/>
<path d="M828.36 38.7983C828.36 37.8388 829.138 37.061 830.097 37.061C831.057 37.061 831.834 37.8388 831.834 38.7983V92.6523H828.36V38.7983Z" fill="#FF0000" fill-opacity="0.04"/>
</g>
<g clip-path="url(#clip46_1_32667)">
<path d="M840.62 19.1095C840.62 18.1501 841.398 17.3723 842.358 17.3723C843.317 17.3723 844.095 18.1501 844.095 19.1095V92.6522H840.62V19.1095Z" fill="#0176FF" fill-opacity="0.2"/>
<path d="M846.411 38.798C846.411 37.8386 847.189 37.0608 848.148 37.0608C849.108 37.0608 849.886 37.8386 849.886 38.798V92.6521H846.411V38.798Z" fill="#FF0000" fill-opacity="0.04"/>
</g>
<g clip-path="url(#clip47_1_32667)">
<path d="M858.672 70.0683C858.672 69.1088 859.449 68.3311 860.409 68.3311C861.368 68.3311 862.146 69.1088 862.146 70.0683V92.6523H858.672V70.0683Z" fill="#0176FF" fill-opacity="0.2"/>
<path d="M864.462 38.7983C864.462 37.8388 865.24 37.061 866.2 37.061C867.159 37.061 867.937 37.8388 867.937 38.7983V92.6523H864.462V38.7983Z" fill="#FF0000" fill-opacity="0.04"/>
</g>
<g clip-path="url(#clip48_1_32667)">
<path d="M876.723 43.4306C876.723 42.4711 877.501 41.6934 878.46 41.6934C879.419 41.6934 880.197 42.4711 880.197 43.4306V92.6521H876.723V43.4306Z" fill="#0176FF" fill-opacity="0.2"/>
<path d="M882.514 38.798C882.514 37.8386 883.291 37.0608 884.251 37.0608C885.21 37.0608 885.988 37.8386 885.988 38.798V92.6521H882.514V38.798Z" fill="#FF0000" fill-opacity="0.04"/>
</g>
<g clip-path="url(#clip49_1_32667)">
<path d="M894.774 29.5329C894.774 28.5734 895.552 27.7957 896.511 27.7957C897.471 27.7957 898.248 28.5734 898.248 29.5329V92.6522H894.774V29.5329Z" fill="#0176FF" fill-opacity="0.2"/>
<path d="M900.565 38.798C900.565 37.8386 901.343 37.0608 902.302 37.0608C903.261 37.0608 904.039 37.8386 904.039 38.798V92.6521H900.565V38.798Z" fill="#FF0000" fill-opacity="0.04"/>
</g>
<g clip-path="url(#clip50_1_32667)">
<path d="M912.825 60.8029C912.825 59.8435 913.603 59.0657 914.562 59.0657C915.522 59.0657 916.3 59.8435 916.3 60.8029V92.6521H912.825V60.8029Z" fill="#0176FF" fill-opacity="0.2"/>
<path d="M918.616 38.798C918.616 37.8386 919.394 37.0608 920.353 37.0608C921.313 37.0608 922.09 37.8386 922.09 38.798V92.6521H918.616V38.798Z" fill="#FF0000" fill-opacity="0.04"/>
</g>
<g clip-path="url(#clip51_1_32667)">
<path d="M930.876 35.3237C930.876 34.3642 931.654 33.5864 932.614 33.5864C933.573 33.5864 934.351 34.3642 934.351 35.3237V92.6522H930.876V35.3237Z" fill="#0176FF" fill-opacity="0.2"/>
<path d="M936.667 38.798C936.667 37.8386 937.445 37.0608 938.404 37.0608C939.364 37.0608 940.142 37.8386 940.142 38.798V92.6521H936.667V38.798Z" fill="#FF0000" fill-opacity="0.04"/>
</g>
<g clip-path="url(#clip52_1_32667)">
<path d="M948.928 67.7519C948.928 66.7924 949.705 66.0146 950.665 66.0146C951.624 66.0146 952.402 66.7924 952.402 67.7519V92.6521H948.928V67.7519Z" fill="#0176FF" fill-opacity="0.2"/>
<path d="M954.718 38.798C954.718 37.8386 955.496 37.0608 956.456 37.0608C957.415 37.0608 958.193 37.8386 958.193 38.798V92.6521H954.718V38.798Z" fill="#FF0000" fill-opacity="0.04"/>
</g>
<g clip-path="url(#clip53_1_32667)">
<path d="M966.979 1.73723C966.979 0.777785 967.757 0 968.716 0C969.676 0 970.453 0.777784 970.453 1.73723V92.6522H966.979V1.73723Z" fill="#0176FF" fill-opacity="0.2"/>
<path d="M972.77 38.798C972.77 37.8386 973.547 37.0608 974.507 37.0608C975.466 37.0608 976.244 37.8386 976.244 38.798V92.6521H972.77V38.798Z" fill="#FF0000" fill-opacity="0.04"/>
</g>
<g clip-path="url(#clip54_1_32667)">
<path d="M985.03 53.8542C985.03 52.8947 985.808 52.1169 986.767 52.1169C987.727 52.1169 988.505 52.8947 988.505 53.8542V92.6523H985.03V53.8542Z" fill="#0176FF" fill-opacity="0.2"/>
<path d="M990.821 38.7983C990.821 37.8388 991.599 37.061 992.558 37.061C993.517 37.061 994.295 37.8388 994.295 38.7983V92.6523H990.821V38.7983Z" fill="#FF0000" fill-opacity="0.04"/>
</g>
<g clip-path="url(#clip55_1_32667)">
<path d="M1003.08 19.1095C1003.08 18.1501 1003.86 17.3723 1004.82 17.3723C1005.78 17.3723 1006.56 18.1501 1006.56 19.1095V92.6522H1003.08V19.1095Z" fill="#0176FF" fill-opacity="0.2"/>
<path d="M1008.87 38.798C1008.87 37.8386 1009.65 37.0608 1010.61 37.0608C1011.57 37.0608 1012.35 37.8386 1012.35 38.798V92.6521H1008.87V38.798Z" fill="#FF0000" fill-opacity="0.04"/>
</g>
<g clip-path="url(#clip56_1_32667)">
<path d="M1021.13 72.3844C1021.13 71.425 1021.91 70.6472 1022.87 70.6472C1023.83 70.6472 1024.61 71.425 1024.61 72.3844V92.6521H1021.13V72.3844Z" fill="#0176FF" fill-opacity="0.2"/>
<path d="M1026.92 38.798C1026.92 37.8386 1027.7 37.0608 1028.66 37.0608C1029.62 37.0608 1030.4 37.8386 1030.4 38.798V92.6521H1026.92V38.798Z" fill="#FF0000" fill-opacity="0.04"/>
</g>
<g clip-path="url(#clip57_1_32667)">
<path d="M1039.18 29.5329C1039.18 28.5734 1039.96 27.7957 1040.92 27.7957C1041.88 27.7957 1042.66 28.5734 1042.66 29.5329V92.6522H1039.18V29.5329Z" fill="#0176FF" fill-opacity="0.2"/>
<path d="M1044.97 38.798C1044.97 37.8386 1045.75 37.0608 1046.71 37.0608C1047.67 37.0608 1048.45 37.8386 1048.45 38.798V92.6521H1044.97V38.798Z" fill="#FF0000" fill-opacity="0.04"/>
</g>
<g clip-path="url(#clip58_1_32667)">
<path d="M1057.23 51.5378C1057.23 50.5783 1058.01 49.8005 1058.97 49.8005C1059.93 49.8005 1060.71 50.5783 1060.71 51.5378V92.6522H1057.23V51.5378Z" fill="#0176FF" fill-opacity="0.2"/>
<path d="M1063.03 38.798C1063.03 37.8386 1063.8 37.0608 1064.76 37.0608C1065.72 37.0608 1066.5 37.8386 1066.5 38.798V92.6521H1063.03V38.798Z" fill="#FF0000" fill-opacity="0.04"/>
</g>
<g clip-path="url(#clip59_1_32667)">
<path d="M1077.5 65.4355C1077.5 64.476 1078.28 63.6982 1079.24 63.6982C1080.2 63.6982 1080.97 64.476 1080.97 65.4355V92.652H1077.5V65.4355Z" fill="#0176FF" fill-opacity="0.2"/>
<path d="M1083.29 38.798C1083.29 37.8386 1084.07 37.0608 1085.03 37.0608C1085.99 37.0608 1086.77 37.8386 1086.77 38.798V92.6521H1083.29V38.798Z" fill="#FF0000" fill-opacity="0.04"/>
</g>
<g clip-path="url(#clip60_1_32667)">
<path d="M1095.55 21.4257C1095.55 20.4663 1096.33 19.6885 1097.29 19.6885C1098.25 19.6885 1099.03 20.4663 1099.03 21.4257V92.6521H1095.55V21.4257Z" fill="#0176FF" fill-opacity="0.2"/>
<path d="M1101.34 38.798C1101.34 37.8386 1102.12 37.0608 1103.08 37.0608C1104.04 37.0608 1104.82 37.8386 1104.82 38.798V92.6521H1101.34V38.798Z" fill="#FF0000" fill-opacity="0.04"/>
</g>
<g clip-path="url(#clip61_1_32667)">
<path d="M1113.6 41.1144C1113.6 40.155 1114.38 39.3772 1115.34 39.3772C1116.3 39.3772 1117.08 40.155 1117.08 41.1144V92.6522H1113.6V41.1144Z" fill="#0176FF" fill-opacity="0.2"/>
<path d="M1119.39 38.798C1119.39 37.8386 1120.17 37.0608 1121.13 37.0608C1122.09 37.0608 1122.87 37.8386 1122.87 38.798V92.6521H1119.39V38.798Z" fill="#FF0000" fill-opacity="0.04"/>
</g>
<g clip-path="url(#clip62_1_32667)">
<path d="M1131.65 56.1703C1131.65 55.2109 1132.43 54.4331 1133.39 54.4331C1134.35 54.4331 1135.13 55.2109 1135.13 56.1703V92.6521H1131.65V56.1703Z" fill="#0176FF" fill-opacity="0.2"/>
<path d="M1137.44 38.798C1137.44 37.8386 1138.22 37.0608 1139.18 37.0608C1140.14 37.0608 1140.92 37.8386 1140.92 38.798V92.6521H1137.44V38.798Z" fill="#FF0000" fill-opacity="0.04"/>
</g>
<g clip-path="url(#clip63_1_32667)">
<path d="M1149.7 43.4306C1149.7 42.4711 1150.48 41.6934 1151.44 41.6934C1152.4 41.6934 1153.18 42.4711 1153.18 43.4306V92.6521H1149.7V43.4306Z" fill="#0176FF" fill-opacity="0.2"/>
<path d="M1155.5 38.798C1155.5 37.8386 1156.27 37.0608 1157.23 37.0608C1158.19 37.0608 1158.97 37.8386 1158.97 38.798V92.6521H1155.5V38.798Z" fill="#FF0000" fill-opacity="0.04"/>
</g>
<g clip-path="url(#clip64_1_32667)">
<path d="M1167.76 78.1752C1167.76 77.2158 1168.53 76.438 1169.49 76.438C1170.45 76.438 1171.23 77.2158 1171.23 78.1752V92.6521H1167.76V78.1752Z" fill="#0176FF" fill-opacity="0.2"/>
<path d="M1173.55 38.798C1173.55 37.8386 1174.32 37.0608 1175.28 37.0608C1176.24 37.0608 1177.02 37.8386 1177.02 38.798V92.6521H1173.55V38.798Z" fill="#FF0000" fill-opacity="0.04"/>
</g>
<g clip-path="url(#clip65_1_32667)">
<path d="M1185.81 30.6911C1185.81 29.7316 1186.58 28.9539 1187.54 28.9539C1188.5 28.9539 1189.28 29.7316 1189.28 30.6911V92.6522H1185.81V30.6911Z" fill="#0176FF" fill-opacity="0.2"/>
<path d="M1191.6 38.7983C1191.6 37.8388 1192.38 37.061 1193.34 37.061C1194.29 37.061 1195.07 37.8388 1195.07 38.7983V92.6523H1191.6V38.7983Z" fill="#FF0000" fill-opacity="0.04"/>
</g>
<g clip-path="url(#clip66_1_32667)">
<path d="M1203.86 49.2214C1203.86 48.2619 1204.64 47.4841 1205.6 47.4841C1206.56 47.4841 1207.33 48.2619 1207.33 49.2214V92.6521H1203.86V49.2214Z" fill="#0176FF" fill-opacity="0.2"/>
<path d="M1209.65 38.798C1209.65 37.8386 1210.43 37.0608 1211.39 37.0608C1212.35 37.0608 1213.12 37.8386 1213.12 38.798V92.6521H1209.65V38.798Z" fill="#FF0000" fill-opacity="0.04"/>
</g>
<g clip-path="url(#clip67_1_32667)">
<path d="M1221.91 24.9003C1221.91 23.9409 1222.69 23.1631 1223.65 23.1631C1224.61 23.1631 1225.38 23.9409 1225.38 24.9003V92.6522H1221.91V24.9003Z" fill="#0176FF" fill-opacity="0.2"/>
<path d="M1227.7 38.7983C1227.7 37.8388 1228.48 37.061 1229.44 37.061C1230.4 37.061 1231.17 37.8388 1231.17 38.7983V92.6523H1227.7V38.7983Z" fill="#FF0000" fill-opacity="0.04"/>
</g>
<g clip-path="url(#clip68_1_32667)">
<path d="M1239.96 70.0683C1239.96 69.1088 1240.74 68.3311 1241.7 68.3311C1242.66 68.3311 1243.44 69.1088 1243.44 70.0683V92.6523H1239.96V70.0683Z" fill="#0176FF" fill-opacity="0.2"/>
<path d="M1245.75 38.7983C1245.75 37.8388 1246.53 37.061 1247.49 37.061C1248.45 37.061 1249.23 37.8388 1249.23 38.7983V92.6523H1245.75V38.7983Z" fill="#FF0000" fill-opacity="0.04"/>
</g>
<g clip-path="url(#clip69_1_32667)">
<path d="M1258.01 35.3237C1258.01 34.3642 1258.79 33.5864 1259.75 33.5864C1260.71 33.5864 1261.49 34.3642 1261.49 35.3237V92.6522H1258.01V35.3237Z" fill="#0176FF" fill-opacity="0.2"/>
<path d="M1263.8 38.798C1263.8 37.8386 1264.58 37.0608 1265.54 37.0608C1266.5 37.0608 1267.28 37.8386 1267.28 38.798V92.6521H1263.8V38.798Z" fill="#FF0000" fill-opacity="0.04"/>
</g>
<g clip-path="url(#clip70_1_32667)">
<path d="M1276.06 41.1144C1276.06 40.155 1276.84 39.3772 1277.8 39.3772C1278.76 39.3772 1279.54 40.155 1279.54 41.1144V92.6522H1276.06V41.1144Z" fill="#0176FF" fill-opacity="0.2"/>
<path d="M1281.85 38.798C1281.85 37.8386 1282.63 37.0608 1283.59 37.0608C1284.55 37.0608 1285.33 37.8386 1285.33 38.798V92.6521H1281.85V38.798Z" fill="#FF0000" fill-opacity="0.04"/>
</g>
<g clip-path="url(#clip71_1_32667)">
<path d="M1294.11 8.6862C1294.11 7.72675 1294.89 6.94897 1295.85 6.94897C1296.81 6.94897 1297.59 7.72676 1297.59 8.6862V92.6522H1294.11V8.6862Z" fill="#0176FF" fill-opacity="0.2"/>
<path d="M1299.91 38.7983C1299.91 37.8388 1300.68 37.061 1301.64 37.061C1302.6 37.061 1303.38 37.8388 1303.38 38.7983V92.6523H1299.91V38.7983Z" fill="#FF0000" fill-opacity="0.04"/>
</g>
<g clip-path="url(#clip72_1_32667)">
<path d="M1312.17 56.1703C1312.17 55.2109 1312.94 54.4331 1313.9 54.4331C1314.86 54.4331 1315.64 55.2109 1315.64 56.1703V92.6521H1312.17V56.1703Z" fill="#0176FF" fill-opacity="0.2"/>
<path d="M1317.96 38.798C1317.96 37.8386 1318.73 37.0608 1319.69 37.0608C1320.65 37.0608 1321.43 37.8386 1321.43 38.798V92.6521H1317.96V38.798Z" fill="#FF0000" fill-opacity="0.04"/>
</g>
<g clip-path="url(#clip73_1_32667)">
<path d="M1330.22 33.0072C1330.22 32.0478 1330.99 31.27 1331.95 31.27C1332.91 31.27 1333.69 32.0478 1333.69 33.0072V92.6521H1330.22V33.0072Z" fill="#0176FF" fill-opacity="0.2"/>
<path d="M1336.01 38.798C1336.01 37.8386 1336.79 37.0608 1337.74 37.0608C1338.7 37.0608 1339.48 37.8386 1339.48 38.798V92.6521H1336.01V38.798Z" fill="#FF0000" fill-opacity="0.04"/>
</g>
<g clip-path="url(#clip74_1_32667)">
<path d="M1348.27 78.1752C1348.27 77.2158 1349.05 76.438 1350.01 76.438C1350.96 76.438 1351.74 77.2158 1351.74 78.1752V92.6521H1348.27V78.1752Z" fill="#0176FF" fill-opacity="0.2"/>
<path d="M1354.06 38.798C1354.06 37.8386 1354.84 37.0608 1355.8 37.0608C1356.76 37.0608 1357.53 37.8386 1357.53 38.798V92.6521H1354.06V38.798Z" fill="#FF0000" fill-opacity="0.04"/>
</g>
<g clip-path="url(#clip75_1_32667)">
<path d="M1366.32 53.8542C1366.32 52.8947 1367.1 52.1169 1368.06 52.1169C1369.02 52.1169 1369.79 52.8947 1369.79 53.8542V92.6523H1366.32V53.8542Z" fill="#0176FF" fill-opacity="0.2"/>
<path d="M1372.11 38.7983C1372.11 37.8388 1372.89 37.061 1373.85 37.061C1374.81 37.061 1375.58 37.8388 1375.58 38.7983V92.6523H1372.11V38.7983Z" fill="#FF0000" fill-opacity="0.04"/>
</g>
<g clip-path="url(#clip76_1_32667)">
<path d="M1384.37 19.1095C1384.37 18.1501 1385.15 17.3723 1386.11 17.3723C1387.07 17.3723 1387.84 18.1501 1387.84 19.1095V92.6522H1384.37V19.1095Z" fill="#0176FF" fill-opacity="0.2"/>
<path d="M1390.16 38.798C1390.16 37.8386 1390.94 37.0608 1391.9 37.0608C1392.86 37.0608 1393.64 37.8386 1393.64 38.798V92.6521H1390.16V38.798Z" fill="#FF0000" fill-opacity="0.04"/>
</g>
<g clip-path="url(#clip77_1_32667)">
<path d="M1402.42 70.0683C1402.42 69.1088 1403.2 68.3311 1404.16 68.3311C1405.12 68.3311 1405.9 69.1088 1405.9 70.0683V92.6523H1402.42V70.0683Z" fill="#0176FF" fill-opacity="0.2"/>
<path d="M1408.21 38.7983C1408.21 37.8388 1408.99 37.061 1409.95 37.061C1410.91 37.061 1411.69 37.8388 1411.69 38.7983V92.6523H1408.21V38.7983Z" fill="#FF0000" fill-opacity="0.04"/>
</g>
<g clip-path="url(#clip78_1_32667)">
<path d="M1420.47 43.4306C1420.47 42.4711 1421.25 41.6934 1422.21 41.6934C1423.17 41.6934 1423.95 42.4711 1423.95 43.4306V92.6521H1420.47V43.4306Z" fill="#0176FF" fill-opacity="0.2"/>
<path d="M1426.26 38.798C1426.26 37.8386 1427.04 37.0608 1428 37.0608C1428.96 37.0608 1429.74 37.8386 1429.74 38.798V92.6521H1426.26V38.798Z" fill="#FF0000" fill-opacity="0.04"/>
</g>
<g clip-path="url(#clip79_1_32667)">
<path d="M1438.52 29.5329C1438.52 28.5734 1439.3 27.7957 1440.26 27.7957C1441.22 27.7957 1442 28.5734 1442 29.5329V92.6522H1438.52V29.5329Z" fill="#0176FF" fill-opacity="0.2"/>
<path d="M1444.31 38.798C1444.31 37.8386 1445.09 37.0608 1446.05 37.0608C1447.01 37.0608 1447.79 37.8386 1447.79 38.798V92.6521H1444.31V38.798Z" fill="#FF0000" fill-opacity="0.04"/>
</g>
<g clip-path="url(#clip80_1_32667)">
<path d="M1456.58 60.8029C1456.58 59.8435 1457.35 59.0657 1458.31 59.0657C1459.27 59.0657 1460.05 59.8435 1460.05 60.8029V92.6521H1456.58V60.8029Z" fill="#0176FF" fill-opacity="0.2"/>
<path d="M1462.37 38.798C1462.37 37.8386 1463.14 37.0608 1464.1 37.0608C1465.06 37.0608 1465.84 37.8386 1465.84 38.798V92.6521H1462.37V38.798Z" fill="#FF0000" fill-opacity="0.04"/>
</g>
<g clip-path="url(#clip81_1_32667)">
<path d="M1474.63 35.3237C1474.63 34.3642 1475.4 33.5864 1476.36 33.5864C1477.32 33.5864 1478.1 34.3642 1478.1 35.3237V92.6522H1474.63V35.3237Z" fill="#0176FF" fill-opacity="0.2"/>
<path d="M1480.42 38.798C1480.42 37.8386 1481.19 37.0608 1482.15 37.0608C1483.11 37.0608 1483.89 37.8386 1483.89 38.798V92.6521H1480.42V38.798Z" fill="#FF0000" fill-opacity="0.04"/>
</g>
<g clip-path="url(#clip82_1_32667)">
<path d="M1492.68 67.7519C1492.68 66.7924 1493.46 66.0146 1494.41 66.0146C1495.37 66.0146 1496.15 66.7924 1496.15 67.7519V92.6521H1492.68V67.7519Z" fill="#0176FF" fill-opacity="0.2"/>
<path d="M1498.47 38.798C1498.47 37.8386 1499.25 37.0608 1500.21 37.0608C1501.17 37.0608 1501.94 37.8386 1501.94 38.798V92.6521H1498.47V38.798Z" fill="#FF0000" fill-opacity="0.04"/>
</g>
<g clip-path="url(#clip83_1_32667)">
<path d="M1510.73 1.73723C1510.73 0.777785 1511.51 0 1512.47 0C1513.43 0 1514.2 0.777784 1514.2 1.73723V92.6522H1510.73V1.73723Z" fill="#0176FF" fill-opacity="0.2"/>
<path d="M1516.52 38.798C1516.52 37.8386 1517.3 37.0608 1518.26 37.0608C1519.22 37.0608 1519.99 37.8386 1519.99 38.798V92.6521H1516.52V38.798Z" fill="#FF0000" fill-opacity="0.04"/>
</g>
<g clip-path="url(#clip84_1_32667)">
<path d="M1528.78 53.8542C1528.78 52.8947 1529.56 52.1169 1530.52 52.1169C1531.48 52.1169 1532.25 52.8947 1532.25 53.8542V92.6523H1528.78V53.8542Z" fill="#0176FF" fill-opacity="0.2"/>
<path d="M1534.57 38.7983C1534.57 37.8388 1535.35 37.061 1536.31 37.061C1537.27 37.061 1538.05 37.8388 1538.05 38.7983V92.6523H1534.57V38.7983Z" fill="#FF0000" fill-opacity="0.04"/>
</g>
<g clip-path="url(#clip85_1_32667)">
<path d="M1546.83 19.1095C1546.83 18.1501 1547.61 17.3723 1548.57 17.3723C1549.53 17.3723 1550.31 18.1501 1550.31 19.1095V92.6522H1546.83V19.1095Z" fill="#0176FF" fill-opacity="0.2"/>
<path d="M1552.62 38.798C1552.62 37.8386 1553.4 37.0608 1554.36 37.0608C1555.32 37.0608 1556.1 37.8386 1556.1 38.798V92.6521H1552.62V38.798Z" fill="#FF0000" fill-opacity="0.04"/>
</g>
<g clip-path="url(#clip86_1_32667)">
<path d="M1564.88 72.3844C1564.88 71.425 1565.66 70.6472 1566.62 70.6472C1567.58 70.6472 1568.36 71.425 1568.36 72.3844V92.6521H1564.88V72.3844Z" fill="#0176FF" fill-opacity="0.2"/>
<path d="M1570.67 38.798C1570.67 37.8386 1571.45 37.0608 1572.41 37.0608C1573.37 37.0608 1574.15 37.8386 1574.15 38.798V92.6521H1570.67V38.798Z" fill="#FF0000" fill-opacity="0.04"/>
</g>
<g clip-path="url(#clip87_1_32667)">
<path d="M1582.93 29.5329C1582.93 28.5734 1583.71 27.7957 1584.67 27.7957C1585.63 27.7957 1586.41 28.5734 1586.41 29.5329V92.6522H1582.93V29.5329Z" fill="#0176FF" fill-opacity="0.2"/>
<path d="M1588.72 38.798C1588.72 37.8386 1589.5 37.0608 1590.46 37.0608C1591.42 37.0608 1592.2 37.8386 1592.2 38.798V92.6521H1588.72V38.798Z" fill="#FF0000" fill-opacity="0.04"/>
</g>
</g>
<defs>
<clipPath id="clip0_1_32667">
<path d="M8.05115 22.0048C8.05115 20.7255 9.08819 19.6885 10.3675 19.6885H15.0001C16.2793 19.6885 17.3164 20.7255 17.3164 22.0048V92.6521H8.05115V22.0048Z" fill="white"/>
</clipPath>
<clipPath id="clip1_1_32667">
<path d="M26.1024 41.6935C26.1024 40.4142 27.1395 39.3772 28.4187 39.3772H33.0513C34.3306 39.3772 35.3676 40.4142 35.3676 41.6935V92.6522H26.1024V41.6935Z" fill="white"/>
</clipPath>
<clipPath id="clip2_1_32667">
<path d="M44.1536 56.7494C44.1536 55.4702 45.1907 54.4331 46.4699 54.4331H51.1025C52.3818 54.4331 53.4188 55.4702 53.4188 56.7494V92.6521H44.1536V56.7494Z" fill="white"/>
</clipPath>
<clipPath id="clip3_1_32667">
<path d="M62.2048 44.0097C62.2048 42.7304 63.2419 41.6934 64.5211 41.6934H69.1537C70.433 41.6934 71.4701 42.7304 71.4701 44.0097V92.6521H62.2048V44.0097Z" fill="white"/>
</clipPath>
<clipPath id="clip4_1_32667">
<path d="M80.256 78.7543C80.256 77.475 81.293 76.438 82.5723 76.438H87.2049C88.4842 76.438 89.5212 77.475 89.5212 78.7543V92.6521H80.256V78.7543Z" fill="white"/>
</clipPath>
<clipPath id="clip5_1_32667">
<path d="M98.3072 31.2702C98.3072 29.9909 99.3442 28.9539 100.623 28.9539H105.256C106.535 28.9539 107.572 29.9909 107.572 31.2702V92.6522H98.3072V31.2702Z" fill="white"/>
</clipPath>
<clipPath id="clip6_1_32667">
<path d="M116.358 49.8004C116.358 48.5212 117.395 47.4841 118.675 47.4841H123.307C124.587 47.4841 125.624 48.5212 125.624 49.8004V92.6521H116.358V49.8004Z" fill="white"/>
</clipPath>
<clipPath id="clip7_1_32667">
<path d="M134.41 25.4794C134.41 24.2001 135.447 23.1631 136.726 23.1631H141.359C142.638 23.1631 143.675 24.2001 143.675 25.4794V92.6522H134.41V25.4794Z" fill="white"/>
</clipPath>
<clipPath id="clip8_1_32667">
<path d="M152.461 70.6474C152.461 69.3681 153.498 68.3311 154.777 68.3311H159.41C160.689 68.3311 161.726 69.3681 161.726 70.6474V92.6523H152.461V70.6474Z" fill="white"/>
</clipPath>
<clipPath id="clip9_1_32667">
<path d="M170.512 35.9027C170.512 34.6235 171.549 33.5864 172.828 33.5864H177.461C178.74 33.5864 179.777 34.6235 179.777 35.9027V92.6522H170.512V35.9027Z" fill="white"/>
</clipPath>
<clipPath id="clip10_1_32667">
<path d="M188.563 41.6935C188.563 40.4142 189.6 39.3772 190.879 39.3772H195.512C196.791 39.3772 197.828 40.4142 197.828 41.6935V92.6522H188.563V41.6935Z" fill="white"/>
</clipPath>
<clipPath id="clip11_1_32667">
<path d="M206.614 9.26528C206.614 7.98602 207.651 6.94897 208.931 6.94897H213.563C214.843 6.94897 215.88 7.98602 215.88 9.26528V92.6522H206.614V9.26528Z" fill="white"/>
</clipPath>
<clipPath id="clip12_1_32667">
<path d="M224.666 56.7494C224.666 55.4702 225.703 54.4331 226.982 54.4331H231.615C232.894 54.4331 233.931 55.4702 233.931 56.7494V92.6521H224.666V56.7494Z" fill="white"/>
</clipPath>
<clipPath id="clip13_1_32667">
<path d="M242.717 33.5863C242.717 32.3071 243.754 31.27 245.033 31.27H249.666C250.945 31.27 251.982 32.3071 251.982 33.5863V92.6521H242.717V33.5863Z" fill="white"/>
</clipPath>
<clipPath id="clip14_1_32667">
<path d="M260.768 78.7543C260.768 77.475 261.805 76.438 263.084 76.438H267.717C268.996 76.438 270.033 77.475 270.033 78.7543V92.6521H260.768V78.7543Z" fill="white"/>
</clipPath>
<clipPath id="clip15_1_32667">
<path d="M278.819 54.4333C278.819 53.154 279.856 52.1169 281.136 52.1169H285.768C287.047 52.1169 288.084 53.154 288.084 54.4332V92.6523H278.819V54.4333Z" fill="white"/>
</clipPath>
<clipPath id="clip16_1_32667">
<path d="M296.87 19.6886C296.87 18.4094 297.907 17.3723 299.187 17.3723H303.819C305.099 17.3723 306.136 18.4094 306.136 19.6886V92.6522H296.87V19.6886Z" fill="white"/>
</clipPath>
<clipPath id="clip17_1_32667">
<path d="M314.922 70.6474C314.922 69.3681 315.959 68.3311 317.238 68.3311H321.871C323.15 68.3311 324.187 69.3681 324.187 70.6474V92.6523H314.922V70.6474Z" fill="white"/>
</clipPath>
<clipPath id="clip18_1_32667">
<path d="M332.973 44.0097C332.973 42.7304 334.01 41.6934 335.289 41.6934H339.922C341.201 41.6934 342.238 42.7304 342.238 44.0097V92.6521H332.973V44.0097Z" fill="white"/>
</clipPath>
<clipPath id="clip19_1_32667">
<path d="M351.024 30.112C351.024 28.8327 352.061 27.7957 353.34 27.7957H357.973C359.252 27.7957 360.289 28.8327 360.289 30.112V92.6522H351.024V30.112Z" fill="white"/>
</clipPath>
<clipPath id="clip20_1_32667">
<path d="M369.075 61.382C369.075 60.1027 370.112 59.0657 371.391 59.0657H376.024C377.303 59.0657 378.34 60.1027 378.34 61.382V92.6521H369.075V61.382Z" fill="white"/>
</clipPath>
<clipPath id="clip21_1_32667">
<path d="M387.126 35.9027C387.126 34.6235 388.164 33.5864 389.443 33.5864H394.075C395.355 33.5864 396.392 34.6235 396.392 35.9027V92.6522H387.126V35.9027Z" fill="white"/>
</clipPath>
<clipPath id="clip22_1_32667">
<path d="M405.178 68.331C405.178 67.0517 406.215 66.0146 407.494 66.0146H412.127C413.406 66.0146 414.443 67.0517 414.443 68.331V92.6521H405.178V68.331Z" fill="white"/>
</clipPath>
<clipPath id="clip23_1_32667">
<path d="M423.229 2.31631C423.229 1.03705 424.266 0 425.545 0H430.178C431.457 0 432.494 1.03704 432.494 2.3163V92.6522H423.229V2.31631Z" fill="white"/>
</clipPath>
<clipPath id="clip24_1_32667">
<path d="M441.28 54.4333C441.28 53.154 442.317 52.1169 443.596 52.1169H448.229C449.508 52.1169 450.545 53.154 450.545 54.4332V92.6523H441.28V54.4333Z" fill="white"/>
</clipPath>
<clipPath id="clip25_1_32667">
<path d="M459.331 19.6886C459.331 18.4094 460.368 17.3723 461.648 17.3723H466.28C467.559 17.3723 468.597 18.4094 468.597 19.6886V92.6522H459.331V19.6886Z" fill="white"/>
</clipPath>
<clipPath id="clip26_1_32667">
<path d="M477.382 72.9635C477.382 71.6843 478.419 70.6472 479.699 70.6472H484.331C485.611 70.6472 486.648 71.6843 486.648 72.9635V92.6521H477.382V72.9635Z" fill="white"/>
</clipPath>
<clipPath id="clip27_1_32667">
<path d="M495.434 30.112C495.434 28.8327 496.471 27.7957 497.75 27.7957H502.383C503.662 27.7957 504.699 28.8327 504.699 30.112V92.6522H495.434V30.112Z" fill="white"/>
</clipPath>
<clipPath id="clip28_1_32667">
<path d="M513.485 52.1168C513.485 50.8376 514.522 49.8005 515.801 49.8005H520.434C521.713 49.8005 522.75 50.8376 522.75 52.1168V92.6522H513.485V52.1168Z" fill="white"/>
</clipPath>
<clipPath id="clip29_1_32667">
<path d="M533.75 66.0145C533.75 64.7353 534.787 63.6982 536.066 63.6982H540.699C541.978 63.6982 543.015 64.7353 543.015 66.0145V92.652H533.75V66.0145Z" fill="white"/>
</clipPath>
<clipPath id="clip30_1_32667">
<path d="M551.801 22.0048C551.801 20.7255 552.838 19.6885 554.118 19.6885H558.75C560.029 19.6885 561.066 20.7255 561.066 22.0048V92.6521H551.801V22.0048Z" fill="white"/>
</clipPath>
<clipPath id="clip31_1_32667">
<path d="M569.852 41.6935C569.852 40.4142 570.889 39.3772 572.169 39.3772H576.801C578.081 39.3772 579.118 40.4142 579.118 41.6935V92.6522H569.852V41.6935Z" fill="white"/>
</clipPath>
<clipPath id="clip32_1_32667">
<path d="M587.904 56.7494C587.904 55.4702 588.941 54.4331 590.22 54.4331H594.853C596.132 54.4331 597.169 55.4702 597.169 56.7494V92.6521H587.904V56.7494Z" fill="white"/>
</clipPath>
<clipPath id="clip33_1_32667">
<path d="M605.955 44.0097C605.955 42.7304 606.992 41.6934 608.271 41.6934H612.904C614.183 41.6934 615.22 42.7304 615.22 44.0097V92.6521H605.955V44.0097Z" fill="white"/>
</clipPath>
<clipPath id="clip34_1_32667">
<path d="M624.006 78.7543C624.006 77.475 625.043 76.438 626.322 76.438H630.955C632.234 76.438 633.271 77.475 633.271 78.7543V92.6521H624.006V78.7543Z" fill="white"/>
</clipPath>
<clipPath id="clip35_1_32667">
<path d="M642.057 31.2702C642.057 29.9909 643.094 28.9539 644.373 28.9539H649.006C650.285 28.9539 651.322 29.9909 651.322 31.2702V92.6522H642.057V31.2702Z" fill="white"/>
</clipPath>
<clipPath id="clip36_1_32667">
<path d="M660.108 49.8004C660.108 48.5212 661.145 47.4841 662.425 47.4841H667.057C668.337 47.4841 669.374 48.5212 669.374 49.8004V92.6521H660.108V49.8004Z" fill="white"/>
</clipPath>
<clipPath id="clip37_1_32667">
<path d="M678.16 25.4794C678.16 24.2001 679.197 23.1631 680.476 23.1631H685.109C686.388 23.1631 687.425 24.2001 687.425 25.4794V92.6522H678.16V25.4794Z" fill="white"/>
</clipPath>
<clipPath id="clip38_1_32667">
<path d="M696.211 70.6474C696.211 69.3681 697.248 68.3311 698.527 68.3311H703.16C704.439 68.3311 705.476 69.3681 705.476 70.6474V92.6523H696.211V70.6474Z" fill="white"/>
</clipPath>
<clipPath id="clip39_1_32667">
<path d="M714.262 35.9027C714.262 34.6235 715.299 33.5864 716.578 33.5864H721.211C722.49 33.5864 723.527 34.6235 723.527 35.9027V92.6522H714.262V35.9027Z" fill="white"/>
</clipPath>
<clipPath id="clip40_1_32667">
<path d="M732.313 41.6935C732.313 40.4142 733.35 39.3772 734.629 39.3772H739.262C740.541 39.3772 741.578 40.4142 741.578 41.6935V92.6522H732.313V41.6935Z" fill="white"/>
</clipPath>
<clipPath id="clip41_1_32667">
<path d="M750.364 9.26528C750.364 7.98602 751.401 6.94897 752.681 6.94897H757.313C758.593 6.94897 759.63 7.98602 759.63 9.26528V92.6522H750.364V9.26528Z" fill="white"/>
</clipPath>
<clipPath id="clip42_1_32667">
<path d="M768.416 56.7494C768.416 55.4702 769.453 54.4331 770.732 54.4331H775.365C776.644 54.4331 777.681 55.4702 777.681 56.7494V92.6521H768.416V56.7494Z" fill="white"/>
</clipPath>
<clipPath id="clip43_1_32667">
<path d="M786.467 33.5863C786.467 32.3071 787.504 31.27 788.783 31.27H793.416C794.695 31.27 795.732 32.3071 795.732 33.5863V92.6521H786.467V33.5863Z" fill="white"/>
</clipPath>
<clipPath id="clip44_1_32667">
<path d="M804.518 78.7543C804.518 77.475 805.555 76.438 806.834 76.438H811.467C812.746 76.438 813.783 77.475 813.783 78.7543V92.6521H804.518V78.7543Z" fill="white"/>
</clipPath>
<clipPath id="clip45_1_32667">
<path d="M822.569 54.4333C822.569 53.154 823.606 52.1169 824.885 52.1169H829.518C830.797 52.1169 831.834 53.154 831.834 54.4332V92.6523H822.569V54.4333Z" fill="white"/>
</clipPath>
<clipPath id="clip46_1_32667">
<path d="M840.62 19.6886C840.62 18.4094 841.657 17.3723 842.937 17.3723H847.569C848.849 17.3723 849.886 18.4094 849.886 19.6886V92.6522H840.62V19.6886Z" fill="white"/>
</clipPath>
<clipPath id="clip47_1_32667">
<path d="M858.672 70.6474C858.672 69.3681 859.709 68.3311 860.988 68.3311H865.621C866.9 68.3311 867.937 69.3681 867.937 70.6474V92.6523H858.672V70.6474Z" fill="white"/>
</clipPath>
<clipPath id="clip48_1_32667">
<path d="M876.723 44.0097C876.723 42.7304 877.76 41.6934 879.039 41.6934H883.672C884.951 41.6934 885.988 42.7304 885.988 44.0097V92.6521H876.723V44.0097Z" fill="white"/>
</clipPath>
<clipPath id="clip49_1_32667">
<path d="M894.774 30.112C894.774 28.8327 895.811 27.7957 897.09 27.7957H901.723C903.002 27.7957 904.039 28.8327 904.039 30.112V92.6522H894.774V30.112Z" fill="white"/>
</clipPath>
<clipPath id="clip50_1_32667">
<path d="M912.825 61.382C912.825 60.1027 913.862 59.0657 915.142 59.0657H919.774C921.053 59.0657 922.09 60.1027 922.09 61.382V92.6521H912.825V61.382Z" fill="white"/>
</clipPath>
<clipPath id="clip51_1_32667">
<path d="M930.876 35.9027C930.876 34.6235 931.913 33.5864 933.193 33.5864H937.825C939.105 33.5864 940.142 34.6235 940.142 35.9027V92.6522H930.876V35.9027Z" fill="white"/>
</clipPath>
<clipPath id="clip52_1_32667">
<path d="M948.928 68.331C948.928 67.0517 949.965 66.0146 951.244 66.0146H955.877C957.156 66.0146 958.193 67.0517 958.193 68.331V92.6521H948.928V68.331Z" fill="white"/>
</clipPath>
<clipPath id="clip53_1_32667">
<path d="M966.979 2.31631C966.979 1.03705 968.016 0 969.295 0H973.928C975.207 0 976.244 1.03704 976.244 2.3163V92.6522H966.979V2.31631Z" fill="white"/>
</clipPath>
<clipPath id="clip54_1_32667">
<path d="M985.03 54.4333C985.03 53.154 986.067 52.1169 987.346 52.1169H991.979C993.258 52.1169 994.295 53.154 994.295 54.4332V92.6523H985.03V54.4333Z" fill="white"/>
</clipPath>
<clipPath id="clip55_1_32667">
<path d="M1003.08 19.6886C1003.08 18.4094 1004.12 17.3723 1005.4 17.3723H1010.03C1011.31 17.3723 1012.35 18.4094 1012.35 19.6886V92.6522H1003.08V19.6886Z" fill="white"/>
</clipPath>
<clipPath id="clip56_1_32667">
<path d="M1021.13 72.9635C1021.13 71.6843 1022.17 70.6472 1023.45 70.6472H1028.08C1029.36 70.6472 1030.4 71.6843 1030.4 72.9635V92.6521H1021.13V72.9635Z" fill="white"/>
</clipPath>
<clipPath id="clip57_1_32667">
<path d="M1039.18 30.112C1039.18 28.8327 1040.22 27.7957 1041.5 27.7957H1046.13C1047.41 27.7957 1048.45 28.8327 1048.45 30.112V92.6522H1039.18V30.112Z" fill="white"/>
</clipPath>
<clipPath id="clip58_1_32667">
<path d="M1057.23 52.1168C1057.23 50.8376 1058.27 49.8005 1059.55 49.8005H1064.18C1065.46 49.8005 1066.5 50.8376 1066.5 52.1168V92.6522H1057.23V52.1168Z" fill="white"/>
</clipPath>
<clipPath id="clip59_1_32667">
<path d="M1077.5 66.0145C1077.5 64.7353 1078.54 63.6982 1079.82 63.6982H1084.45C1085.73 63.6982 1086.77 64.7353 1086.77 66.0145V92.652H1077.5V66.0145Z" fill="white"/>
</clipPath>
<clipPath id="clip60_1_32667">
<path d="M1095.55 22.0048C1095.55 20.7255 1096.59 19.6885 1097.87 19.6885H1102.5C1103.78 19.6885 1104.82 20.7255 1104.82 22.0048V92.6521H1095.55V22.0048Z" fill="white"/>
</clipPath>
<clipPath id="clip61_1_32667">
<path d="M1113.6 41.6935C1113.6 40.4142 1114.64 39.3772 1115.92 39.3772H1120.55C1121.83 39.3772 1122.87 40.4142 1122.87 41.6935V92.6522H1113.6V41.6935Z" fill="white"/>
</clipPath>
<clipPath id="clip62_1_32667">
<path d="M1131.65 56.7494C1131.65 55.4702 1132.69 54.4331 1133.97 54.4331H1138.6C1139.88 54.4331 1140.92 55.4702 1140.92 56.7494V92.6521H1131.65V56.7494Z" fill="white"/>
</clipPath>
<clipPath id="clip63_1_32667">
<path d="M1149.7 44.0097C1149.7 42.7304 1150.74 41.6934 1152.02 41.6934H1156.65C1157.93 41.6934 1158.97 42.7304 1158.97 44.0097V92.6521H1149.7V44.0097Z" fill="white"/>
</clipPath>
<clipPath id="clip64_1_32667">
<path d="M1167.76 78.7543C1167.76 77.475 1168.79 76.438 1170.07 76.438H1174.7C1175.98 76.438 1177.02 77.475 1177.02 78.7543V92.6521H1167.76V78.7543Z" fill="white"/>
</clipPath>
<clipPath id="clip65_1_32667">
<path d="M1185.81 31.2702C1185.81 29.9909 1186.84 28.9539 1188.12 28.9539H1192.76C1194.04 28.9539 1195.07 29.9909 1195.07 31.2702V92.6522H1185.81V31.2702Z" fill="white"/>
</clipPath>
<clipPath id="clip66_1_32667">
<path d="M1203.86 49.8004C1203.86 48.5212 1204.9 47.4841 1206.17 47.4841H1210.81C1212.09 47.4841 1213.12 48.5212 1213.12 49.8004V92.6521H1203.86V49.8004Z" fill="white"/>
</clipPath>
<clipPath id="clip67_1_32667">
<path d="M1221.91 25.4794C1221.91 24.2001 1222.95 23.1631 1224.23 23.1631H1228.86C1230.14 23.1631 1231.17 24.2001 1231.17 25.4794V92.6522H1221.91V25.4794Z" fill="white"/>
</clipPath>
<clipPath id="clip68_1_32667">
<path d="M1239.96 70.6474C1239.96 69.3681 1241 68.3311 1242.28 68.3311H1246.91C1248.19 68.3311 1249.23 69.3681 1249.23 70.6474V92.6523H1239.96V70.6474Z" fill="white"/>
</clipPath>
<clipPath id="clip69_1_32667">
<path d="M1258.01 35.9027C1258.01 34.6235 1259.05 33.5864 1260.33 33.5864H1264.96C1266.24 33.5864 1267.28 34.6235 1267.28 35.9027V92.6522H1258.01V35.9027Z" fill="white"/>
</clipPath>
<clipPath id="clip70_1_32667">
<path d="M1276.06 41.6935C1276.06 40.4142 1277.1 39.3772 1278.38 39.3772H1283.01C1284.29 39.3772 1285.33 40.4142 1285.33 41.6935V92.6522H1276.06V41.6935Z" fill="white"/>
</clipPath>
<clipPath id="clip71_1_32667">
<path d="M1294.11 9.26528C1294.11 7.98602 1295.15 6.94897 1296.43 6.94897H1301.06C1302.34 6.94897 1303.38 7.98602 1303.38 9.26528V92.6522H1294.11V9.26528Z" fill="white"/>
</clipPath>
<clipPath id="clip72_1_32667">
<path d="M1312.17 56.7494C1312.17 55.4702 1313.2 54.4331 1314.48 54.4331H1319.11C1320.39 54.4331 1321.43 55.4702 1321.43 56.7494V92.6521H1312.17V56.7494Z" fill="white"/>
</clipPath>
<clipPath id="clip73_1_32667">
<path d="M1330.22 33.5863C1330.22 32.3071 1331.25 31.27 1332.53 31.27H1337.17C1338.44 31.27 1339.48 32.3071 1339.48 33.5863V92.6521H1330.22V33.5863Z" fill="white"/>
</clipPath>
<clipPath id="clip74_1_32667">
<path d="M1348.27 78.7543C1348.27 77.475 1349.31 76.438 1350.58 76.438H1355.22C1356.5 76.438 1357.53 77.475 1357.53 78.7543V92.6521H1348.27V78.7543Z" fill="white"/>
</clipPath>
<clipPath id="clip75_1_32667">
<path d="M1366.32 54.4333C1366.32 53.154 1367.36 52.1169 1368.64 52.1169H1373.27C1374.55 52.1169 1375.58 53.154 1375.58 54.4332V92.6523H1366.32V54.4333Z" fill="white"/>
</clipPath>
<clipPath id="clip76_1_32667">
<path d="M1384.37 19.6886C1384.37 18.4094 1385.41 17.3723 1386.69 17.3723H1391.32C1392.6 17.3723 1393.64 18.4094 1393.64 19.6886V92.6522H1384.37V19.6886Z" fill="white"/>
</clipPath>
<clipPath id="clip77_1_32667">
<path d="M1402.42 70.6474C1402.42 69.3681 1403.46 68.3311 1404.74 68.3311H1409.37C1410.65 68.3311 1411.69 69.3681 1411.69 70.6474V92.6523H1402.42V70.6474Z" fill="white"/>
</clipPath>
<clipPath id="clip78_1_32667">
<path d="M1420.47 44.0097C1420.47 42.7304 1421.51 41.6934 1422.79 41.6934H1427.42C1428.7 41.6934 1429.74 42.7304 1429.74 44.0097V92.6521H1420.47V44.0097Z" fill="white"/>
</clipPath>
<clipPath id="clip79_1_32667">
<path d="M1438.52 30.112C1438.52 28.8327 1439.56 27.7957 1440.84 27.7957H1445.47C1446.75 27.7957 1447.79 28.8327 1447.79 30.112V92.6522H1438.52V30.112Z" fill="white"/>
</clipPath>
<clipPath id="clip80_1_32667">
<path d="M1456.58 61.382C1456.58 60.1027 1457.61 59.0657 1458.89 59.0657H1463.52C1464.8 59.0657 1465.84 60.1027 1465.84 61.382V92.6521H1456.58V61.382Z" fill="white"/>
</clipPath>
<clipPath id="clip81_1_32667">
<path d="M1474.63 35.9027C1474.63 34.6235 1475.66 33.5864 1476.94 33.5864H1481.58C1482.85 33.5864 1483.89 34.6235 1483.89 35.9027V92.6522H1474.63V35.9027Z" fill="white"/>
</clipPath>
<clipPath id="clip82_1_32667">
<path d="M1492.68 68.331C1492.68 67.0517 1493.71 66.0146 1494.99 66.0146H1499.63C1500.91 66.0146 1501.94 67.0517 1501.94 68.331V92.6521H1492.68V68.331Z" fill="white"/>
</clipPath>
<clipPath id="clip83_1_32667">
<path d="M1510.73 2.31631C1510.73 1.03705 1511.77 0 1513.05 0H1517.68C1518.96 0 1519.99 1.03704 1519.99 2.3163V92.6522H1510.73V2.31631Z" fill="white"/>
</clipPath>
<clipPath id="clip84_1_32667">
<path d="M1528.78 54.4333C1528.78 53.154 1529.82 52.1169 1531.1 52.1169H1535.73C1537.01 52.1169 1538.05 53.154 1538.05 54.4332V92.6523H1528.78V54.4333Z" fill="white"/>
</clipPath>
<clipPath id="clip85_1_32667">
<path d="M1546.83 19.6886C1546.83 18.4094 1547.87 17.3723 1549.15 17.3723H1553.78C1555.06 17.3723 1556.1 18.4094 1556.1 19.6886V92.6522H1546.83V19.6886Z" fill="white"/>
</clipPath>
<clipPath id="clip86_1_32667">
<path d="M1564.88 72.9635C1564.88 71.6843 1565.92 70.6472 1567.2 70.6472H1571.83C1573.11 70.6472 1574.15 71.6843 1574.15 72.9635V92.6521H1564.88V72.9635Z" fill="white"/>
</clipPath>
<clipPath id="clip87_1_32667">
<path d="M1582.93 30.112C1582.93 28.8327 1583.97 27.7957 1585.25 27.7957H1589.88C1591.16 27.7957 1592.2 28.8327 1592.2 30.112V92.6522H1582.93V30.112Z" fill="white"/>
</clipPath>
</defs>
</svg>
